<svg xmlns="http://www.w3.org/2000/svg" width="50" height="50" fill="none" viewBox="0 0 50 50"><path stroke="#727E91" stroke-width="1.2" d="M24.5 29L22.7244 27.2664L12.6911 17.1963C11.9115 16.4138 11.9139 15.1475 12.6963 14.3679L18.6745 8.41161C19.457 7.632 20.7233 7.63433 21.5029 8.41681L46.5879 33.5941C47.3675 34.3765 47.3652 35.6429 46.5827 36.4225L40.6019 42.3813C39.8205 43.1599 38.5562 43.1588 37.7761 42.3787L36.3974 41"/><path stroke="#727E91" stroke-width="1.2" d="M34 29.3503L34.7913 28.559V28.559C35.3192 28.033 35.3208 27.1787 34.7948 26.6507L26.3862 18.2112C25.6066 17.4288 24.3403 17.4264 23.5578 18.206L22.5705 19.1897C21.787 19.9704 21.7858 21.2387 22.5679 22.0208L29.5471 29"/><path stroke="#727E91" stroke-width="1.2" d="M2.6 30.5981C2.6 29.8249 3.2268 29.1981 4 29.1981H39.1877C42.4024 29.1981 45.0083 31.8041 45.0083 35.0187C45.0083 38.2334 42.4024 40.8393 39.1877 40.8393H4C3.2268 40.8393 2.6 40.2125 2.6 39.4393V30.5981Z"/><circle cx="38.304" cy="35.019" r="2.721" stroke="#727E91" stroke-width="1.2"/><circle cx="19.705" cy="15.191" r="2.278" stroke="#727E91" stroke-width="1.2"/><path fill="#CD1A1A" d="M40.5 18C44.6333 18 48 14.6333 48 10.5C48 6.36675 44.6333 3 40.5 3C36.3667 3 33 6.36675 33 10.5C33 14.6333 36.3667 18 40.5 18ZM40.5 16.5C37.1774 16.5 34.5 13.8226 34.5 10.5C34.5 7.17741 37.1774 4.5 40.5 4.5C43.8226 4.5 46.5 7.17741 46.5 10.5C46.5 13.8226 43.8226 16.5 40.5 16.5ZM41.25 14.25L41.25 12.75L39.75 12.75L39.75 14.25L41.25 14.25ZM41.25 11.25L41.25 6.75L39.75 6.75L39.75 11.25L41.25 11.25Z"/></svg>