<svg xmlns="http://www.w3.org/2000/svg" width="28" height="28" fill="none" viewBox="0 0 28 28"><path stroke="#7C4FFC" stroke-miterlimit="10" stroke-width="1.7" d="M14.093 26.1701C20.822 26.1701 26.2769 20.7152 26.2769 13.9863C26.2769 7.2573 20.822 1.8024 14.093 1.8024C7.36408 1.8024 1.90918 7.2573 1.90918 13.9863C1.90918 20.7152 7.36408 26.1701 14.093 26.1701Z"/><path stroke="#7C4FFC" stroke-miterlimit="10" stroke-width="1.7" d="M14.0954 22.1989C18.6319 22.1989 22.3095 18.5214 22.3095 13.9849C22.3095 9.44837 18.6319 5.77081 14.0954 5.77081C9.55891 5.77081 5.88135 9.44837 5.88135 13.9849C5.88135 18.5214 9.55891 22.1989 14.0954 22.1989Z"/><path stroke="#7C4FFC" stroke-linecap="round" stroke-miterlimit="10" stroke-width="1.6" d="M9.82324 11.5323C10.2838 10.8183 10.9163 10.2313 11.6626 9.82512C12.4089 9.41896 13.2454 9.20649 14.0951 9.2074"/><path stroke="#7C4FFC" stroke-linecap="round" stroke-miterlimit="10" stroke-width="1.6" d="M8.8987 14.4831C8.92324 14.2464 8.96272 14.0116 9.01714 13.78"/><path stroke="#7C4FFC" stroke-miterlimit="10" stroke-width="1.7" d="M13.9146 1.81174V5.38455"/><path stroke="#7C4FFC" stroke-miterlimit="10" stroke-width="1.7" d="M13.9146 22.1989L13.9146 26.1976"/><path stroke="#7C4FFC" stroke-miterlimit="10" stroke-width="1.7" d="M5.29199 5.38455L8.32025 8.41281"/><path stroke="#7C4FFC" stroke-miterlimit="10" stroke-width="1.7" d="M19.7266 19.8191L22.5364 22.629"/><path stroke="#7C4FFC" stroke-miterlimit="10" stroke-width="1.7" d="M1.72119 14.0064H5.60755"/><path stroke="#7C4FFC" stroke-miterlimit="10" stroke-width="1.7" d="M22.1455 14.0064L26.1089 14.0064"/><path stroke="#7C4FFC" stroke-miterlimit="10" stroke-width="1.7" d="M5.29199 22.6292L8.15668 19.7645"/><path stroke="#7C4FFC" stroke-miterlimit="10" stroke-width="1.7" d="M19.7266 8.19443L22.5364 5.38455"/></svg>